<svg width="35" height="34" viewBox="0 0 35 34" fill="none" xmlns="http://www.w3.org/2000/svg">
<path d="M26.9598 33.4555C26.6328 33.4546 26.3069 33.4188 25.9875 33.3486C19.9079 32.091 14.3069 29.1422 9.8292 24.8417C5.44707 20.5317 2.40783 15.0442 1.0792 9.04305C0.922539 8.29513 0.96099 7.51948 1.19086 6.79072C1.42072 6.06196 1.83427 5.40462 2.3917 4.88194L6.28059 1.13889C6.47922 0.95104 6.71523 0.807192 6.97322 0.716729C7.2312 0.626267 7.50537 0.591223 7.77781 0.613885C8.06031 0.643356 8.33291 0.734357 8.57646 0.880487C8.82001 1.02662 9.02859 1.22433 9.18753 1.45972L14.0486 8.64444C14.2309 8.92322 14.3189 9.25315 14.2997 9.58568C14.2804 9.91821 14.155 10.2358 13.9417 10.4917L11.5014 13.4083C12.4733 15.5593 13.8497 17.5034 15.5556 19.1347C17.2505 20.8252 19.2538 22.175 21.457 23.1111L24.4806 20.7097C24.7345 20.509 25.0436 20.3904 25.3666 20.3695C25.6896 20.3487 26.0113 20.4266 26.2889 20.5931L33.6292 25.3375C33.8811 25.4879 34.0957 25.6933 34.2569 25.9385C34.4181 26.1836 34.5218 26.462 34.5601 26.7528C34.5985 27.0437 34.5705 27.3395 34.4783 27.618C34.3861 27.8965 34.2321 28.1506 34.0278 28.3611L30.2361 32.1139C29.8054 32.5425 29.2942 32.8817 28.7319 33.1119C28.1696 33.3422 27.5674 33.459 26.9598 33.4555ZM7.62226 2.53889L3.73337 6.28194C3.41978 6.57414 3.18765 6.94293 3.0598 7.35205C2.93195 7.76116 2.91279 8.19651 3.0042 8.61527C4.23962 14.2465 7.07948 19.3995 11.1806 23.4514C15.3944 27.4973 20.6652 30.2709 26.3861 31.4528C26.8192 31.5433 27.2679 31.525 27.6921 31.3994C28.1163 31.2738 28.5027 31.045 28.8167 30.7333L32.6084 26.9806L25.5209 22.4014L22.2736 24.9875C22.1493 25.0859 22.0028 25.1524 21.8469 25.1812C21.691 25.21 21.5305 25.2002 21.3792 25.1528C18.6829 24.1593 16.2395 22.5824 14.2236 20.5347C12.1386 18.5876 10.5201 16.1947 9.48892 13.5347C9.4453 13.3737 9.44385 13.2041 9.48472 13.0424C9.52558 12.8806 9.60738 12.7321 9.72226 12.6111L12.3473 9.47083L7.62226 2.53889Z" fill="black"/>
</svg>
