<svg width="50" height="50" viewBox="0 0 50 50" fill="none" xmlns="http://www.w3.org/2000/svg">
<path d="M45.4282 20.9198H43.7501V20.8333H25.0001V29.1667H36.774C35.0563 34.0177 30.4407 37.5 25.0001 37.5C18.097 37.5 12.5001 31.9031 12.5001 25C12.5001 18.0969 18.097 12.5 25.0001 12.5C28.1865 12.5 31.0855 13.7021 33.2928 15.6656L39.1855 9.77291C35.4647 6.30521 30.4876 4.16666 25.0001 4.16666C13.4949 4.16666 4.16675 13.4948 4.16675 25C4.16675 36.5052 13.4949 45.8333 25.0001 45.8333C36.5053 45.8333 45.8334 36.5052 45.8334 25C45.8334 23.6031 45.6897 22.2396 45.4282 20.9198Z" fill="#FFC107"/>
<path d="M6.5686 15.3031L13.4134 20.3229C15.2655 15.7375 19.7509 12.5 24.9999 12.5C28.1863 12.5 31.0853 13.7021 33.2926 15.6656L39.1853 9.77291C35.4644 6.30521 30.4874 4.16666 24.9999 4.16666C16.9978 4.16666 10.0582 8.68437 6.5686 15.3031Z" fill="#FF3D00"/>
<path d="M25.0002 45.8333C30.3815 45.8333 35.2711 43.7739 38.968 40.425L32.52 34.9687C30.3581 36.6129 27.7163 37.5021 25.0002 37.5C19.5815 37.5 14.9805 34.0448 13.2471 29.2229L6.45337 34.4573C9.90129 41.2042 16.9034 45.8333 25.0002 45.8333Z" fill="#4CAF50"/>
<path d="M45.4281 20.9198H43.75V20.8333H25V29.1667H36.774C35.9523 31.4754 34.4722 33.4929 32.5167 34.9698L32.5198 34.9677L38.9677 40.424C38.5115 40.8385 45.8333 35.4167 45.8333 25C45.8333 23.6031 45.6896 22.2396 45.4281 20.9198Z" fill="#1976D2"/>
</svg>
